<svg xmlns="http://www.w3.org/2000/svg" width="400" height="300" viewBox="0 0 400 300">
  <!-- Background -->
  <rect width="400" height="300" fill="#E6F5F2"/>

  <!-- Michigan Outline (simplified path) -->
  <path d="M150,50 C150,40 160,30 170,30 C180,30 190,40 190,50 C190,60 180,70 170,80 C160,90 150,100 150,110 C150,120 160,130 170,130 C180,130 190,120 190,110 C190,100 200,90 210,90 C220,90 230,100 230,110 C230,120 220,130 210,140 C200,150 190,160 190,170 C190,180 200,190 210,190 C220,190 230,180 230,170 C230,160 240,150 250,150 C260,150 270,160 270,170 C270,180 260,190 250,200 C240,210 230,220 230,230 L210,230 C200,220 190,210 190,200 C190,190 180,180 170,180 C160,170 150,160 150,150 C150,140 140,130 130,130 C120,130 110,140 110,150 C110,160 120,170 130,180 C140,190 150,200 150,210 L150,230 L130,230 C120,220 110,210 110,200 C110,190 100,180 90,180 C80,170 70,160 70,150 C70,140 80,130 90,120 C100,110 110,100 110,90 C110,80 100,70 90,60 C80,50 70,40 70,30 Z" fill="#25c2a0" stroke="#1a8870" stroke-width="2"/>

  <!-- Scattered Dots -->
  <circle cx="130" cy="60" r="3" fill="#4fddbf"/>
  <circle cx="170" cy="50" r="3" fill="#4fddbf"/>
  <circle cx="210" cy="70" r="3" fill="#4fddbf"/>
  <circle cx="150" cy="100" r="3" fill="#4fddbf"/>
  <circle cx="190" cy="110" r="3" fill="#4fddbf"/>
  <circle cx="230" cy="130" r="3" fill="#4fddbf"/>
  <circle cx="110" cy="150" r="3" fill="#4fddbf"/>
  <circle cx="170" cy="160" r="3" fill="#4fddbf"/>
  <circle cx="210" cy="180" r="3" fill="#4fddbf"/>
  <circle cx="130" cy="200" r="3" fill="#4fddbf"/>

  <!-- Connecting Lines -->
  <line x1="130" y1="60" x2="170" y2="50" stroke="#4fddbf" stroke-width="1"/>
  <line x1="170" y1="50" x2="210" y2="70" stroke="#4fddbf" stroke-width="1"/>
  <line x1="210" y1="70" x2="150" y2="100" stroke="#4fddbf" stroke-width="1"/>
  <line x1="150" y1="100" x2="190" y2="110" stroke="#4fddbf" stroke-width="1"/>
  <line x1="190" y1="110" x2="230" y2="130" stroke="#4fddbf" stroke-width="1"/>
  <line x1="230" y1="130" x2="110" y2="150" stroke="#4fddbf" stroke-width="1"/>
  <line x1="110" y1="150" x2="170" y2="160" stroke="#4fddbf" stroke-width="1"/>
  <line x1="170" y1="160" x2="210" y2="180" stroke="#4fddbf" stroke-width="1"/>
  <line x1="210" y1="180" x2="130" y2="200" stroke="#4fddbf" stroke-width="1"/>
  <line x1="130" y1="200" x2="130" y2="60" stroke="#4fddbf" stroke-width="1"/>

  <!-- Text: MichMesh.net -->
  <text x="90" y="250" font-family="Arial, sans-serif" font-size="30" font-weight="bold" fill="#4fddbf">MichMesh.net</text>
</svg>
